Coordinates
version=1
nRows=24
nColumns=24
inDegrees=yes

Units are S.I. units (second, meters, Newtons, ...)
Angles are in degrees.

endheader
time	pelvis_tilt	pelvis_list	pelvis_rotation	pelvis_tx	pelvis_ty	pelvis_tz	hip_flexion_r	hip_adduction_r	hip_rotation_r	knee_angle_r	ankle_angle_r	subtalar_angle_r	mtp_angle_r	hip_flexion_l	hip_adduction_l	hip_rotation_l	knee_angle_l	ankle_angle_l	subtalar_angle_l	mtp_angle_l	lumbar_extension	lumbar_bending	lumbar_rotation
      0.47100000	     -2.80547993	      3.59746406	      0.85258756	     -0.85208595	      0.99848989	      0.28348574	     24.34513170	     -3.12907753	     -6.83886616	      0.51388591	     -0.76610986	     -7.69388563	     -0.56104981	     -7.68453600	      5.32664364	     -5.07957735	    -10.30590175	     12.03029561	    -11.70434452	     -0.94990658	    -10.12291919	     -3.82226326	     -0.99120307
      0.47516667	     -2.47389557	      3.40551624	      0.84314733	     -0.84597316	      0.99832263	      0.28371603	     23.98318644	     -2.90652060	     -6.81972399	      0.29155471	     -0.99820799	     -7.87508088	     -0.92584980	     -8.18485103	      5.04816194	     -5.15663098	    -10.79441694	     12.27242337	    -11.43640099	     -1.78106264	    -10.46494443	     -3.50974357	     -0.98965940
      0.47933333	     -2.34412718	      3.33392883	      0.90787040	     -0.84009622	      0.99785184	      0.28374031	     23.92651066	     -2.85561437	     -6.86346543	     -0.16638893	     -1.07248126	     -7.84842845	     -4.20577489	     -8.40163213	      4.91555202	     -5.00972333	    -11.40053452	     12.49211180	    -11.28743774	    -10.83695537	    -10.60844716	     -3.34658673	     -0.95206886
      0.48350000	     -2.13399272	      3.20034452	      0.92988818	     -0.83408825	      0.99753700	      0.28390115	     23.76557874	     -2.71453827	     -6.88790393	     -0.64006634	     -1.29108464	     -8.01778358	     -4.14826143	     -8.69835843	      4.69865437	     -5.02097405	    -12.01491260	     12.65206766	    -11.07557088	    -10.83171155	    -10.82334943	     -3.10690040	     -1.01486293
      0.48766667	     -1.91765756	      3.04006272	      0.95146134	     -0.82802688	      0.99729001	      0.28406550	     23.58711643	     -2.54673961	     -6.91223739	     -1.14604432	     -1.55684368	     -8.17583973	     -4.06712503	     -8.97483542	      4.44945211	     -5.04201999	    -12.68589782	     12.76455628	    -10.89143570	    -10.80766896	    -11.04771192	     -2.83814696	     -1.04508075
      0.49183333	     -1.66063305	      2.88072068	      0.95063510	     -0.82194416	      0.99712958	      0.28424378	     23.37552627	     -2.37353916	     -6.93971093	     -1.71240903	     -1.85209500	     -8.37959399	     -3.97012687	     -9.27828883	      4.20432822	     -5.08045409	    -13.39016504	     12.84677325	    -10.71973036	    -10.76276799	    -11.30743608	     -2.55286576	     -1.06894768
      0.49600000	     -1.42265809	      2.69825144	      0.96046818	     -0.81581227	      0.99699858	      0.28443928	     23.16938379	     -2.17797337	     -6.95821947	     -2.29387247	     -2.20018643	     -8.62195311	     -3.84422820	     -9.53023086	      3.92408688	     -5.15362363	    -14.14810871	     12.87338729	    -10.53363075	    -10.68849254	    -11.54452706	     -2.25416339	     -1.09446502
      0.50016667	     -1.28148469	      2.60446118	      0.92441158	     -0.80975192	      0.99670631	      0.28464562	     23.13857471	     -2.07157356	     -6.96073012	     -3.03185100	     -2.45942948	     -8.70710646	     -3.82457294	     -9.65169949	      3.76701962	     -5.17952804	    -14.94646942	     12.76094661	    -10.60885866	    -10.67467795	    -11.67154687	     -2.06819402	     -1.08742526
      0.50433333	     -0.89670903	      2.31982758	      0.92586821	     -0.80347860	      0.99691720	      0.28493017	     22.70082225	     -1.75110271	     -6.93807460	     -3.53201530	     -2.98737663	     -9.19675939	     -3.57942577	    -10.00583185	      3.34905043	     -5.36821883	    -15.82822626	     12.82299092	    -10.22982111	    -10.47131029	    -12.06628086	     -1.63182479	     -1.15171260
      0.50850000	     -0.64660172	      2.11892069	      0.88996790	     -0.79729695	      0.99691606	      0.28526481	     22.47845044	     -1.51338386	     -6.89482880	     -4.17772771	     -3.43605015	     -9.57063633	     -3.26016502	    -10.17981770	      3.03922878	     -5.53375447	    -16.75620249	     12.72076947	    -10.05860749	    -10.16889206	    -12.32107455	     -1.32234993	     -1.12099341
      0.51266667	     -0.50439107	      1.97262137	      0.79188206	     -0.79112975	      0.99673895	      0.28572497	     22.41326656	     -1.30823707	     -6.77356217	     -4.90219309	     -3.89954877	    -10.07147552	      0.79668560	    -10.20972464	      2.80116187	     -5.72871765	    -17.73216596	     12.50696531	    -10.01435436	     -5.67358549	    -12.43341541	     -1.09279039	     -0.94659518
      0.51683333	     -0.28961756	      1.78240037	      0.83910706	     -0.78497071	      0.99679897	      0.28579720	     22.21999522	     -1.13556809	     -6.87390313	     -5.58018575	     -4.36951496	    -10.33584801	      0.78925756	    -10.25383279	      2.50283420	     -5.77639493	    -18.81811277	     12.32875228	     -9.96303665	     -5.62020103	    -12.64240585	     -0.75888172	     -0.96712196
      0.52100000	     -0.08517351	      1.57824913	      0.81176019	     -0.77873807	      0.99687432	      0.28607602	     22.03213164	     -0.90770119	     -6.85449540	     -6.25597729	     -4.81055835	    -10.72001797	      0.79282002	    -10.27298860	      2.18884024	     -5.92461413	    -19.93095301	     12.02102041	     -9.93059363	     -5.53583912	    -12.83084334	     -0.43033073	     -0.98887136
      0.52516667	      0.15869210	      1.39031810	      0.69654209	     -0.77254875	      0.99701465	      0.28663861	     21.80832260	     -0.64962752	     -6.70412755	     -6.92795362	     -5.28357746	    -11.16042684	      0.82087655	    -10.29203360	      1.87555169	     -6.23926750	    -21.11359565	     11.68767940	     -9.75830784	     -5.28904627	    -13.07555751	     -0.16143919	     -0.93201868
      0.52933333	      0.35141188	      1.18790308	      0.56448849	     -0.76632730	      0.99710041	      0.28723527	     21.63439813	     -0.36966231	     -6.51869183	     -7.60905044	     -5.68015037	    -11.62240679	      0.87630988	    -10.21762765	      1.54513570	     -6.57675519	    -22.37296504	     11.28853971	     -9.68527368	     -4.80897684	    -13.25263005	      0.12799589	     -0.78219775
      0.53350000	      0.47917613	      1.01382911	      0.53284375	     -0.76012047	      0.99718465	      0.28746038	     21.53133541	     -0.19150883	     -6.53134554	     -8.32355268	     -6.02717699	    -11.83496767	      0.88568676	    -10.02287583	      1.26375825	     -6.71042858	    -23.68790929	     10.74350977	     -9.84843124	     -4.69433469	    -13.35202763	      0.43068184	     -0.69892127
      0.53766667	      0.63836676	      0.82074808	      0.33410464	     -0.75395615	      0.99726606	      0.28834389	     21.38833294	      0.12101676	     -6.22088065	     -8.99182651	     -6.42504195	    -12.40966665	      0.94060124	     -9.82164260	      0.91038741	     -7.18160142	    -25.10194275	     10.24073151	     -9.67597179	     -4.02116813	    -13.49939239	      0.65980042	     -0.52907650
      0.54183333	      0.76869228	      0.63148699	      0.27621169	     -0.74775476	      0.99743235	      0.28864057	     21.25873077	      0.32255989	     -6.19973109	     -9.67626751	     -6.69626014	    -12.53697909	      0.94829975	     -9.54419082	      0.59869478	     -7.36323649	    -26.54880208	      9.54360489	     -9.93222838	     -3.86817117	    -13.60588506	      0.96969441	     -0.42193031
      0.54600000	      0.81953352	      0.48880738	      0.04104270	     -0.74161602	      0.99740394	      0.28955360	     21.25095348	      0.58005846	     -5.89874523	    -10.39729265	     -6.98608307	    -12.94476740	      1.21854766	     -9.14557012	      0.29705541	     -7.84088760	    -28.06496199	      8.74059905	    -10.10040841	      6.20715689	    -13.62452258	      1.13540885	     -0.18449230
      0.55016667	      0.96693966	      0.26419292	     -0.01845245	     -0.73542476	      0.99766028	      0.28994359	     21.06516100	      0.82576678	     -5.86069880	    -11.03044517	     -7.14316952	    -13.06386900	      1.21547029	     -8.79634053	     -0.09112430	     -8.07417649	    -29.65481077	      7.94506871	    -10.28091094	      6.22106756	    -13.75235005	      1.47803148	     -0.08160512
      0.55433333	      1.03352839	      0.04828454	     -0.18392106	     -0.72929809	      0.99775215	      0.29070887	     20.98195706	      1.12905061	     -5.65110476	    -11.66456716	     -7.41304484	    -13.44263535	      1.19414413	     -8.32179212	     -0.49545805	     -8.45323038	    -31.32675940	      7.14320784	    -10.39492490	      6.33218019	    -13.79868666	      1.75671188	      0.14907907
      0.55850000	      1.06174667	     -0.15408915	     -0.43927781	     -0.72315535	      0.99775724	      0.29172292	     20.94805568	      1.45546731	     -5.34915196	    -12.32623223	     -7.48766441	    -13.65784355	      1.13648910	     -7.78273738	     -0.90521355	     -8.95417610	    -33.04270013	      6.27738112	    -10.53632751	      6.62935805	    -13.78986254	      1.97222247	      0.46162509
      0.56266667	      1.14308934	     -0.39280629	     -0.53328996	     -0.71701886	      0.99796976	      0.29225771	     20.80246554	      1.73180093	     -5.28643743	    -12.90893137	     -7.58983674	    -13.74943397	      1.11052949	     -7.25002638	     -1.34244642	     -9.20607124	    -34.79325313	      5.30323377	    -10.85740927	      6.74143002	    -13.84869884	      2.29185908	      0.62288621
      0.56683333	      1.25588524	     -0.63626308	     -0.64653004	     -0.71090305	      0.99823174	      0.29288210	     20.60761684	      2.02416886	     -5.19527598	    -13.47704852	     -7.51257325	    -13.76203243	      1.09963366	     -6.72498941	     -1.80098075	     -9.47840921	    -36.57516015	      4.30613779	    -11.13516177	      6.79519125	    -13.94463369	      2.60732227	      0.74580712
